<svg width="298" height="287" viewBox="0 0 298 287" fill="none" xmlns="http://www.w3.org/2000/svg">
<path d="M153.841 10.0502C148.569 10.4264 139.748 11.9313 133.669 13.3824C109.679 19.2406 88.8081 31.0109 71.2724 48.6393C48.5727 71.3199 35.7706 98.8912 32.7583 131.461C31.5749 144.252 33.0811 161.558 36.5237 175.048C41.2572 193.59 51.4237 213.1 63.9569 227.88L66.4312 230.782L66.754 181.122C67.0767 128.559 67.0229 128.935 69.6587 118.777C78.8031 83.1976 106.828 55.035 141.846 46.2745C153.572 43.3723 170.032 42.5124 181.005 44.286C207.47 48.5318 231.246 62.8281 246.415 83.6813C247.652 85.4011 248.835 87.0135 249.05 87.2285C249.266 87.4435 254.967 83.8425 261.745 79.2204C268.523 74.5983 274.493 70.5137 274.977 70.1912C275.73 69.6538 275.3 68.7938 270.889 62.8818C258.571 46.2208 241.95 32.3545 223.5 23.379C208.223 15.9084 194.023 11.9313 177.025 10.2114C171.915 9.72772 159.489 9.62023 153.841 10.0502Z" fill="white"/>
<path d="M158.143 82.5531C157.39 82.6606 155.131 83.0368 153.033 83.3592C134.207 86.369 116.456 99.4828 107.742 116.843C102.685 126.893 100.91 134.364 100.91 145.65C100.91 156.883 102.685 164.407 107.688 174.404C116.348 191.495 132.324 203.641 151.796 207.78C154.916 208.478 158.627 208.747 164.06 208.747C175.303 208.747 182.833 206.973 192.838 201.975C209.944 193.322 222.1 177.36 226.242 157.904C227.587 151.777 227.587 139.523 226.242 133.396C220.756 107.867 201.768 88.895 176.432 83.5742C172.505 82.7143 160.833 82.0694 158.143 82.5531Z" fill="#5D69D6"/>
<path d="M229.902 219.12C221.51 226.16 212.958 231.213 202.253 235.458C177.348 245.294 147.979 244.219 123.45 232.449C117.426 229.546 108.12 223.688 103.924 220.195C102.633 219.066 101.45 218.206 101.342 218.206C101.235 218.206 101.127 227.128 101.127 238.038V257.87L104.623 259.805C118.878 267.598 138.727 273.026 157.069 274.048C192.679 276.036 225.545 264.696 252.709 241.102C256.528 237.769 257.496 236.641 257.012 236.211C256.636 235.888 254 233.577 251.203 231.051C248.406 228.525 243.78 224.602 240.983 222.237C238.185 219.926 235.388 217.561 234.743 217.024C233.613 216.056 233.559 216.056 229.902 219.12Z" fill="white"/>
</svg>
